<?xml version="1.0" encoding="UTF-8"?>
<svg id="Layer_2" data-name="Layer 2" xmlns="http://www.w3.org/2000/svg" viewBox="0 0 136.22 85.24">
  <defs>
    <style>
      .cls-1 {
        fill: #7046f3;
        stroke-width: 0px;
      }
    </style>
  </defs>
  <g id="Capa_1" data-name="Capa 1">
    <g>
      <path class="cls-1" d="M136.22,81.86c-4.03-.07-8.07.31-12.08-.2-3.38-.42-6.07-2.15-8.12-4.82-5.54-7.2-11.04-14.42-16.56-21.63-1.01-1.32-1.02-1.33-2.03-.02-5.46,7.14-10.92,14.29-16.38,21.44-2.65,3.47-6.17,5.22-10.53,5.25-3.06.02-6.11.01-9.17,0-.41,0-.98.2-1.19-.31-.17-.41.28-.71.51-1.01,8.2-10.74,16.41-21.47,24.62-32.2,1.21-1.58,2.37-3.21,3.66-4.72.76-.89.53-1.51-.09-2.31-5.8-7.55-11.58-15.12-17.37-22.69-3.55-4.64-7.11-9.28-10.65-13.94-.25-.33-.79-.66-.55-1.11.23-.42.81-.2,1.24-.21,3.23-.01,6.47-.06,9.7,0,3.85.08,7.1,1.59,9.47,4.63,5.52,7.09,10.95,14.26,16.42,21.4,1.34,1.75,1.32,1.75,2.7-.04,5.44-7.11,10.85-14.23,16.33-21.3,2.4-3.09,5.68-4.61,9.57-4.68,3.5-.07,7,0,10.5.02v1.33c-.3.32-.63.61-.9.96-8.64,11.28-17.28,22.56-25.9,33.84-2.26,2.96-2.25,2.98.03,5.97,8.92,11.68,17.85,23.34,26.78,35.02v1.33Z"/>
      <path class="cls-1" d="M40.97,51.28c-8.51,0-17.02,0-25.52,0-1.45,0-1.7.23-1.49,1.62,1.21,7.77,5.1,13.68,12.4,16.88,8.41,3.69,17.66,1.12,23.41-6.3,2.2-2.84,4.86-4.96,8.48-5.46,2.81-.39,5.66-.1,8.5-.13.72,0,.77.41.6.98-4.49,15.17-16.25,25-30.61,26.24-17.84,1.54-33.27-11.67-36.23-28.75C.08,53.81-.01,51.26,0,48.69c.02-4.96-.03-9.93.02-14.89C.16,18.69,11.38,4.55,26.03.96c16.06-3.93,32.69,4.46,39.16,19.74,2,4.71,3.06,9.59,3,14.73-.05,4.43-.01,8.86-.01,13.29q0,2.55-2.49,2.55c-8.24,0-16.48,0-24.72,0ZM34.01,37.42c6.2,0,12.41,0,18.61,0,1.65,0,1.66-.06,1.71-1.74.13-4-.79-7.72-2.68-11.24-4.83-8.98-15.53-12.96-24.81-9.25-7.78,3.12-13.4,11.45-13.02,20.59.05,1.28.44,1.67,1.7,1.66,6.16-.05,12.32-.02,18.48-.02Z"/>
    </g>
  </g>
</svg>