<?xml version="1.0" encoding="UTF-8"?>
<svg id="Layer_2" data-name="Layer 2" xmlns="http://www.w3.org/2000/svg" viewBox="0 0 71.41 151.57">
  <defs>
    <style>
      .cls-1 {
        fill: #7046f3;
        stroke-width: 0px;
      }
    </style>
  </defs>
  <g id="Capa_1" data-name="Capa 1">
    <path class="cls-1" d="M33.38,147.16c-.02,1.7-.71,4.54,2.49,4.4,3.05-.13,2.41-2.96,2.33-4.63-.41-8.99,3.99-14.99,10.21-21.18,15.41-15.32,23.71-34.06,22.94-56.21-.14-7.74-2.02-15.08-4.48-22.34C60.83,29.32,48.27,15.67,37.17,1.06c-1.61-2.12-2.39-.6-3.27.62-6.11,8.46-13.32,16.08-18.96,24.9C-7.4,61.46-4.75,97.08,23.34,125.92c6.16,6.33,10.15,12.46,10.05,21.24ZM31.87,126.24c.21-3.8.18-7.61.36-11.41.9-19,1.83-37.99,2.76-56.98.06-1.12-.23-2.34,1.11-3.77.4,5.44.89,10.44,1.11,15.45.83,18.34,1.57,36.68,2.35,55.02.03.66.02,1.33.09,1.98.32,3.05-1.01,5.97-3.79,5.98-3.21,0-4.17-3.1-4-6.27Z"/>
  </g>
</svg>