<?xml version="1.0" encoding="UTF-8"?>
<svg id="Layer_2" data-name="Layer 2" xmlns="http://www.w3.org/2000/svg" viewBox="0 0 125.75 141.89">
  <defs>
    <style>
      .cls-1 {
        fill: #f29e38;
        stroke-width: 0px;
      }
    </style>
  </defs>
  <g id="Capa_1" data-name="Capa 1">
    <g>
      <path class="cls-1" d="M125.64,70.84c0,9.12-.26,18.25.09,27.36.24,6.41-2.18,10.71-7.82,13.58-3.97,2.02-7.74,4.44-11.6,6.67-12.51,7.23-25.03,14.44-37.51,21.7-3.87,2.25-7.68,2.36-11.54.08-5.46-3.23-10.92-6.45-16.37-9.68-.54-.32-1.4-.51-1.38-1.24.02-.92,1.01-.88,1.64-1.16.67-.29,1.46-.44,2.01-.88,3.53-2.83,6.71-1.9,10.02.53,2.28,1.67,4.92,2.86,7.29,4.42,1.74,1.15,3.23,1.02,4.97,0,10.32-6.03,20.68-11.98,31.02-17.97,6.05-3.5,12.07-7.06,18.16-10.51,1.84-1.04,2.64-2.36,2.64-4.5-.05-18.89-.07-37.78.02-56.67.01-2.56-1.26-3.81-3.22-4.93-9.29-5.31-18.59-10.61-27.79-16.05-5.8-3.43-11.82-6.47-17.4-10.28-1.36-.93-3.03-1.52-4.53-2.34-1.43-.79-2.63-.13-3.87.59-15.6,9.05-31.21,18.07-46.82,27.1-.7.41-1.38.89-2.13,1.18-2.04.78-2.72,2.19-2.71,4.36.06,19.14.06,38.27,0,57.41,0,2.35.91,3.6,3.08,4.61,3.31,1.54,6.38,3.58,9.56,5.39,1.83,1.05,3.63,2.12,5.74,2.63,5.77,1.41,9.94-1.71,9.95-7.6.02-18.65,0-37.29.01-55.94,0-3.72.28-4,4.07-3.99,5.1.01,4.77-.59,4.77,4.69,0,18.73-.02,37.46.02,56.19,0,4.5-1.13,8.55-4.33,11.78-3.89,3.92-8.82,4.6-14.01,3.84-3.33-.48-6.4-1.85-9.31-3.51-4.03-2.29-8.02-4.66-12.07-6.92C1.9,108.36.05,104.5.04,99.69c-.04-19.22-.06-38.43.01-57.65.02-4.88,2.03-8.66,6.51-11.2,15.07-8.54,30.06-17.23,45.07-25.88,1.83-1.06,3.58-2.25,5.43-3.28,3.76-2.12,7.64-2.31,11.4-.15,10.87,6.23,21.67,12.57,32.52,18.84,5.25,3.04,10.52,6.02,15.77,9.04,1.48.85,2.99,1.67,4.38,2.66,2.96,2.12,4.54,5,4.54,8.72-.02,10.02,0,20.03,0,30.05Z"/>
      <path class="cls-1" d="M77.45,43.21c4.6-.11,9.12.37,13.43,1.99,6.83,2.58,10.86,7.41,11.51,14.86.14,1.59-.38,2.32-1.97,2.29-.65-.02-1.31-.08-1.95.01-3.05.45-4.88-.38-5.83-3.74-.99-3.53-3.75-5.72-7.55-6.37-5.1-.88-10.2-1.05-15.27,0-2.57.54-5.01,1.55-6.13,4.3-1.47,3.6-.39,6.26,3.29,7.52,4.48,1.53,9.21,1.91,13.86,2.62,5.21.8,10.36,1.66,15.4,3.46,6.85,2.45,9.18,8.85,8.22,15.31-.92,6.16-4.68,10.19-10.33,12.16-11.73,4.1-23.45,4.16-34.65-1.79-5.07-2.69-7.16-7.57-7.64-13.14-.12-1.36.05-2.54,1.97-2.07.36.09.79-.11,1.19-.17,4.75-.63,5.09-.46,6.59,4.01,1.05,3.11,3.16,5.19,6.22,6.04,7.18,1.98,14.44,2.13,21.64.09,2.8-.79,4.85-2.47,5.48-5.6.68-3.42-.36-5.65-3.64-6.96-3.89-1.55-8.02-1.98-12.13-2.5-5.79-.72-11.65-1.03-17.13-3.39-9.65-4.16-11.49-16.62-3.46-23.4,5.51-4.65,12.08-5.54,18.93-5.55Z"/>
    </g>
  </g>
</svg>