<?xml version="1.0" encoding="UTF-8"?>
<svg id="Layer_2" data-name="Layer 2" xmlns="http://www.w3.org/2000/svg" viewBox="0 0 147.75 135.04">
  <defs>
    <style>
      .cls-1 {
        fill: #f29e38;
        stroke-width: 0px;
      }
    </style>
  </defs>
  <g id="Capa_1" data-name="Capa 1">
    <g>
      <path class="cls-1" d="M0,66.63c2.14-7.27,7.78-11.25,13.94-14.68,4.51-2.51,9.15-4.79,14.12-6.25,2.5-.73,2.94-1.97,2.27-4.38-2.2-7.86-3.47-15.87-3-24.08.02-.3,0-.59.02-.89.52-11.34,7.47-16.77,18.52-14.24,9.31,2.13,17.07,7.28,24.41,13.13,4.26,3.39,4.23,3.47,8.37,0,5.55-4.66,11.18-9.17,17.79-12.32,15.76-7.52,23.04.35,24.32,14.44.73,8.01.24,16.07-1.81,23.9-.68,2.57.26,3.48,2.5,4.31,8.23,3.04,16.12,6.68,22.3,13.22,5.32,5.63,5.36,11.84.02,17.37-4.8,4.97-10.89,7.86-17.05,10.62-1.72.77-3.45,1.57-5.26,2.04-2.58.67-2.84,2.06-2.19,4.4,2.61,9.34,3.86,18.89,2.3,28.52-1.57,9.71-7.55,13.43-17.2,11.12-9.22-2.2-16.75-7.51-23.9-13.41-4.19-3.46-4.23-3.64-8.29-.08-7.83,6.86-16.25,12.66-26.35,15.67h-6.55c-4.18-1.77-6.94-4.85-8.29-9.14-1.47-4.67-2.02-9.49-1.67-14.36.45-6.22,1.14-12.42,2.88-18.44.5-1.73-.03-2.53-1.72-3-4.5-1.25-8.83-2.98-12.98-5.08-7.47-3.78-14.89-7.68-17.49-16.62v-1.78ZM75.6,40.56c-4.58-.42-9.1.6-13.66.57-1.72,0-2.97.77-3.96,2.21-5.01,7.29-9.35,14.96-13.19,22.92-.65,1.34-.8,2.59-.05,3.96,4.01,7.31,8.25,14.47,13.25,21.16.89,1.19,1.97,1.85,3.49,1.94,9.5.56,18.99.69,28.48-.46,1.87-.23,3.08-1,4.11-2.49,4.46-6.46,8.34-13.25,11.91-20.24.85-1.67.89-3.11.05-4.76-3.84-7.63-8.12-14.99-13.14-21.91-1.08-1.49-2.41-2.32-4.23-2.34-4.36-.02-8.68-.98-13.06-.56ZM32.14,113.18c-.11,3.58-.04,7.14.96,10.61,2.16,7.53,6.33,9.97,13.84,7.94,1.81-.49,3.57-1.2,5.28-1.98,7.66-3.51,14.15-8.7,20.33-14.32,1.11-1.01,1.26-1.79.12-2.93-4.9-4.91-9.58-10.02-13.79-15.54-.77-1.01-1.67-1.59-2.96-1.71-6.03-.58-11.99-1.59-17.85-3.08-2.22-.56-3.06.15-3.51,2.21-1.35,6.2-2.68,12.4-2.43,18.8ZM29.77,20.76c.07,6.78,1.49,13.33,3.12,19.88.59,2.36,1.63,3.03,4,2.35,6.19-1.78,12.52-2.94,18.91-3.73,1.54-.19,2.5-.93,3.35-2.12,3.63-5.08,7.66-9.84,11.9-14.4,1.31-1.41,1.38-2.23-.18-3.55-5.01-4.24-10.31-8.03-16.17-10.98-4.61-2.32-9.36-4.25-14.72-4.03-4.26.17-7.1,2.15-8.57,6.1-1.26,3.38-1.78,6.89-1.64,10.49ZM118.41,23.51c.06-2.87.09-5.75-.62-8.56-.44-1.72-.79-3.49-1.42-5.14-2.26-5.87-6.29-8.03-12.41-6.73-2.14.45-4.16,1.24-6.15,2.16-7.46,3.47-13.65,8.69-19.69,14.14-.98.89-1.28,1.69-.17,2.7,5.18,4.77,9.67,10.16,14.06,15.65.73.92,1.6,1.36,2.76,1.5,6.2.73,12.33,1.91,18.33,3.63,2.04.59,2.93-.01,3.3-2.01,1.05-5.74,2.24-11.46,2.02-17.35ZM119.63,114.07c.07-7.61-1.46-14.16-2.96-20.73-.51-2.25-1.47-2.51-3.55-1.95-5.36,1.43-10.77,2.67-16.3,3.25-1.92.2-3.32,1.02-4.44,2.58-3.84,5.3-8.07,10.28-12.66,14.94-1.21,1.22-1.49,2.03.06,3.3,4.14,3.4,8.31,6.76,12.92,9.49,5.13,3.03,10.4,5.87,16.6,5.89,4.53.02,7.22-1.96,8.76-6.18,1.34-3.69,1.77-7.5,1.59-10.58ZM2.99,66.94c-.01,3.56,1.94,6.62,5.67,9.59,6.72,5.35,14.54,8.39,22.61,10.96,1.89.6,2.5-.36,2.96-1.86,1.53-5.03,3.47-9.91,5.49-14.76.59-1.41.86-2.77.15-4.29-2.63-5.66-5.2-11.36-7.1-17.32-.51-1.61-1.37-1.95-2.9-1.42-8.29,2.88-16.25,6.4-22.9,12.31-2.18,1.93-3.81,4.3-3.99,6.79ZM145.21,67.59c-.17-2.83-1.54-5.09-3.43-7.06-6.15-6.41-14.06-9.8-22.18-12.85-1.73-.65-2.26.22-2.69,1.66-1.67,5.61-3.67,11.1-6.07,16.44-.47,1.04-.66,2.03-.15,3.13,2.39,5.23,4.53,10.56,6.26,16.05.48,1.53,1.39,2.03,2.94,1.5,7.74-2.65,15.19-5.85,21.29-11.48,2.13-1.96,3.81-4.32,4.03-7.4ZM61.87,96.39c4.03,5.27,8.4,10.06,13.13,14.52,1.3,1.23,2.2.19,2.97-.69,3.45-3.94,6.86-7.92,10.25-11.91.48-.57,1.33-1.18.82-2.03-.47-.78-1.44-.47-2.2-.45-4.64.14-9.26.75-13.93.59-3.53-.12-7.07-.02-11.05-.02ZM61.62,38.57c9.39-.82,18.1-.72,27.41-.06-4.18-5.85-8.75-10.45-13.43-14.94-.62-.6-1.27-.47-1.81.14-4.08,4.65-8.41,9.09-12.17,14.86ZM54.76,43.2c-.46-1.35-1.6-.99-2.43-.82-4.95,1-9.88,2.13-14.83,3.13-2.4.48-2.72,1.67-1.92,3.82,1.65,4.47,3.42,8.87,5.42,13.19.29.62.39,1.52,1.12,1.64,1.03.17,1.16-.91,1.49-1.57,3.11-6.21,6.48-12.26,10.36-18.03.27-.41.5-.85.8-1.36ZM95.13,41.98c5.32,7.38,9.24,14.53,13.43,22.2,2.57-5.67,4.45-10.85,5.91-16.2.32-1.17,0-1.89-1.2-2.26-5.68-1.75-11.47-2.85-18.13-3.74ZM55.36,92.48c-4.36-6.42-8.32-12.3-11.6-18.59-.09-.18-.19-.35-.3-.51-.73-1.16-1.42-.97-1.9.15-1.9,4.46-3.65,8.98-4.97,13.65-.29,1.01.05,1.76,1.11,2.07,5.57,1.59,11.25,2.57,17.65,3.25ZM96.38,91.86c5.08-.37,9.29-1.41,13.5-2.44,5.35-1.31,5.42-1.36,3.51-6.6-1.39-3.81-2.56-7.75-4.91-11.61-3.69,7.17-7.58,13.69-12.1,20.65Z"/>
      <circle class="cls-1" cx="75.53" cy="67.52" r="13.41"/>
    </g>
  </g>
</svg>